<svg width="44" height="41" viewBox="0 0 44 41" fill="none" xmlns="http://www.w3.org/2000/svg">
<path d="M25.8518 3.94867H11.4603C10.5061 3.94867 9.59096 4.29986 8.91622 4.92498C8.24149 5.5501 7.86243 6.39795 7.86243 7.282V33.9487C7.86243 34.8327 8.24149 35.6806 8.91622 36.3057C9.59096 36.9308 10.5061 37.282 11.4603 37.282H33.0476C34.0018 37.282 34.917 36.9308 35.5917 36.3057C36.2664 35.6806 36.6455 34.8327 36.6455 33.9487V13.9487L25.8518 3.94867Z" stroke="white" stroke-width="2" stroke-linecap="round" stroke-linejoin="round"/>
<path d="M25.8518 3.94867V13.9487H36.6455" stroke="white" stroke-width="2" stroke-linecap="round" stroke-linejoin="round"/>
<path d="M29.4496 22.282H15.0581" stroke="white" stroke-width="2" stroke-linecap="round" stroke-linejoin="round"/>
<path d="M29.4496 28.9487H15.0581" stroke="white" stroke-width="2" stroke-linecap="round" stroke-linejoin="round"/>
<path d="M18.656 15.6154H16.857H15.0581" stroke="white" stroke-width="2" stroke-linecap="round" stroke-linejoin="round"/>
</svg>
