<svg width="31" height="32" viewBox="0 0 31 32" fill="none" xmlns="http://www.w3.org/2000/svg">
<path d="M3.875 8.36536H6.45833H27.125" stroke="#363939" stroke-width="1.55" stroke-linecap="round" stroke-linejoin="round"/>
<path d="M10.3334 8.36535V5.78202C10.3334 5.09688 10.6055 4.43979 11.09 3.95533C11.5745 3.47086 12.2316 3.19868 12.9167 3.19868H18.0834C18.7685 3.19868 19.4256 3.47086 19.9101 3.95533C20.3945 4.43979 20.6667 5.09688 20.6667 5.78202V8.36535M24.5417 8.36535V26.4487C24.5417 27.1338 24.2695 27.7909 23.7851 28.2754C23.3006 28.7598 22.6435 29.032 21.9584 29.032H9.04171C8.35656 29.032 7.69948 28.7598 7.21501 28.2754C6.73055 27.7909 6.45837 27.1338 6.45837 26.4487V8.36535H24.5417Z" stroke="#363939" stroke-width="1.55" stroke-linecap="round" stroke-linejoin="round"/>
<path d="M12.9166 14.8237V22.5737" stroke="#363939" stroke-width="1.55" stroke-linecap="round" stroke-linejoin="round"/>
<path d="M18.0834 14.8237V22.5737" stroke="#363939" stroke-width="1.55" stroke-linecap="round" stroke-linejoin="round"/>
</svg>
