<svg width="82" height="82" viewBox="0 0 82 82" fill="none" xmlns="http://www.w3.org/2000/svg">
<path d="M54.5999 54.6308L40.9999 41.0308L27.3999 54.6308" stroke="#03A9F4" stroke-width="3.92308" stroke-linecap="round" stroke-linejoin="round"/>
<path d="M40.9999 41.0308V71.6308" stroke="#03A9F4" stroke-width="3.92308" stroke-linecap="round" stroke-linejoin="round"/>
<path d="M69.5259 62.7568C72.8421 60.9489 75.4617 58.0882 76.9715 54.6261C78.4812 51.164 78.795 47.2978 77.8634 43.6375C76.9318 39.9773 74.8078 36.7315 71.8266 34.4125C68.8454 32.0935 65.1769 30.8333 61.3999 30.8308H57.1159C56.0868 26.8502 54.1687 23.1547 51.5057 20.0222C48.8428 16.8896 45.5044 14.4015 41.7414 12.7448C37.9785 11.0882 33.889 10.3062 29.7803 10.4576C25.6716 10.609 21.6507 11.6898 18.0199 13.6188C14.3891 15.5479 11.2428 18.2749 8.81763 21.595C6.39244 24.915 4.75146 28.7416 4.01805 32.7871C3.28463 36.8326 3.47787 40.9918 4.58324 44.9519C5.68861 48.9119 7.67734 52.5699 10.3999 55.6508" stroke="#03A9F4" stroke-width="3.92308" stroke-linecap="round" stroke-linejoin="round"/>
<path d="M54.5999 54.6308L40.9999 41.0308L27.3999 54.6308" stroke="#03A9F4" stroke-width="3.92308" stroke-linecap="round" stroke-linejoin="round"/>
</svg>
